<svg xmlns="http://www.w3.org/2000/svg" xmlns:xlink="http://www.w3.org/1999/xlink" viewBox="0,0,256,256" width="48px" height="48px"><g fill="#1d1e1a" fill-rule="nonzero" stroke="none" stroke-width="1" stroke-linecap="butt" stroke-linejoin="miter" stroke-miterlimit="10" stroke-dasharray="" stroke-dashoffset="0" font-family="none" font-weight="none" font-size="none" text-anchor="none" style="mix-blend-mode: normal"><g transform="scale(10.66667,10.66667)"><path d="M3.70703,2.29297l-1.41406,1.41406l4,4l-1.29297,1.29297h-2c-1.105,0 -2,0.895 -2,2v2c0,1.105 0.895,2 2,2h2l6,6v-8.58594l9.29297,9.29297l1.41406,-1.41406zM11,3l-1.88086,1.88086l1.88086,1.88086zM19.48438,3.51563l-1.41406,1.41406c1.889,1.888 2.92969,4.39931 2.92969,7.07031c0,1.381 -0.2825,2.71627 -0.8125,3.94727l1.5,1.50195c0.853,-1.667 1.3125,-3.52222 1.3125,-5.44922c0,-3.205 -1.24863,-6.21837 -3.51562,-8.48437zM16.65625,6.34375l-1.41406,1.41406c1.346,1.346 1.89245,3.17459 1.68945,4.93359l1.69727,1.69922c0.856,-2.75 0.20134,-5.87287 -1.97266,-8.04687z"></path></g></g></svg>