<svg xmlns="http://www.w3.org/2000/svg" xmlns:xlink="http://www.w3.org/1999/xlink" viewBox="0,0,256,256" width="48px" height="48px"><g fill="#1d1e1a" fill-rule="nonzero" stroke="none" stroke-width="1" stroke-linecap="butt" stroke-linejoin="miter" stroke-miterlimit="10" stroke-dasharray="" stroke-dashoffset="0" font-family="none" font-weight="none" font-size="none" text-anchor="none" style="mix-blend-mode: normal"><g transform="scale(10.66667,10.66667)"><path d="M11,3l-6,6h-2c-1.105,0 -2,0.895 -2,2v2c0,1.105 0.895,2 2,2h2l6,6zM16.65625,6.34375l-1.41406,1.41406c2.35191,2.35191 2.3517,6.13353 0,8.48438l1.41406,1.41406c3.1163,-3.11516 3.11609,-8.19641 0,-11.3125zM13.82813,9.17188l-1.41406,1.41406c0.79009,0.79009 0.79009,2.03804 0,2.82812l1.41406,1.41602c1.55391,-1.55391 1.55391,-4.10429 0,-5.6582z"></path></g></g></svg>