<svg xmlns="http://www.w3.org/2000/svg" xmlns:xlink="http://www.w3.org/1999/xlink" viewBox="0,0,256,256" width="48px" height="48px"><g fill="#45b7e5" fill-rule="nonzero" stroke="none" stroke-width="1" stroke-linecap="butt" stroke-linejoin="miter" stroke-miterlimit="10" stroke-dasharray="" stroke-dashoffset="0" font-family="none" font-weight="none" font-size="none" text-anchor="none" style="mix-blend-mode: normal"><g transform="scale(5.33333,5.33333)"><path d="M24,6c-11.02771,0 -20,8.97229 -20,20c0,6.35021 2.9802,12.01586 7.60156,15.67578c0.26459,0.20959 0.59214,0.32382 0.92969,0.32422h22.93555c0.33822,0.00004 0.66652,-0.11421 0.93164,-0.32422c4.62243,-3.65992 7.60156,-9.32557 7.60156,-15.67578c0,-11.02771 -8.97229,-20 -20,-20zM24,9c9.40629,0 17,7.59371 17,17c0,5.24741 -2.40695,9.88068 -6.13672,13h-21.72851c-3.72885,-3.11932 -6.13477,-7.75265 -6.13477,-13c0,-9.40629 7.59371,-17 17,-17zM24,13c-7.16174,0 -13,5.83826 -13,13c0,3.23167 1.18733,6.20414 3.14648,8.47852c0.34288,0.42892 0.8927,0.63622 1.4334,0.54045c0.5407,-0.09577 0.98587,-0.47931 1.16057,-0.99991c0.1747,-0.52059 0.051,-1.09503 -0.32249,-1.49758c-1.50885,-1.75162 -2.41797,-4.02115 -2.41797,-6.52148c0,-5.54026 4.45974,-10 10,-10c1.06426,0 2.08581,0.1649 3.04492,0.4707c0.51582,0.182 1.08981,0.06882 1.49793,-0.29536c0.40812,-0.36418 0.58569,-0.92163 0.46338,-1.45476c-0.12231,-0.53313 -0.5251,-0.95744 -1.05115,-1.1073c-1.24889,-0.3982 -2.57934,-0.61328 -3.95508,-0.61328zM31.7207,16.73633c-0.38956,0.01135 -0.75941,0.17386 -1.03125,0.45313l-5.91602,5.91602c-0.25212,-0.06869 -0.51213,-0.10415 -0.77344,-0.10547c-1.65685,0 -3,1.34315 -3,3c0,1.65685 1.34315,3 3,3c0.9322,-0.00049 1.8112,-0.4343 2.37863,-1.1739c0.56743,-0.73961 0.7588,-1.70096 0.51786,-2.60149l5.91406,-5.91406c0.4429,-0.43135 0.57582,-1.09023 0.33479,-1.65955c-0.24103,-0.56932 -0.80665,-0.93247 -1.42463,-0.91467zM34.91602,20.98047c-0.47577,0.01151 -0.91787,0.24809 -1.19138,0.63756c-0.27351,0.38947 -0.346,0.88561 -0.19534,1.33705c0.3058,0.95911 0.4707,1.98066 0.4707,3.04492c0,2.49921 -0.90883,4.76866 -2.41797,6.52148c-0.36194,0.40452 -0.47713,0.973 -0.30121,1.48651c0.17593,0.51351 0.61552,0.89192 1.14948,0.9895c0.53396,0.09758 1.07899,-0.10089 1.42516,-0.51898c1.95886,-2.27517 3.14453,-5.24772 3.14453,-8.47852c0,-1.37574 -0.21509,-2.70619 -0.61328,-3.95508c-0.19553,-0.64486 -0.79704,-1.08022 -1.4707,-1.06445z"></path></g></g></svg>